#tb 0: 1001/30000
#media_type 0: video
#codec_id 0: rawvideo
#dimensions 0: 1920x1080
#sar 0: 1/1
0,          0,          0,        1,  3110400, 0x764f8856
0,          2,          2,        1,  3110400, 0x3b615b79
0,          3,          3,        1,  3110400, 0x4fbb6f84
0,          4,          4,        1,  3110400, 0xc1ca8532
0,          5,          5,        1,  3110400, 0xb6e7d363
0,          6,          6,        1,  3110400, 0x1beb5c34
0,          7,          7,        1,  3110400, 0xcb8cb061
0,          8,          8,        1,  3110400, 0x13ddbd61
0,          9,          9,        1,  3110400, 0xde8f052f
0,         10,         10,        1,  3110400, 0x4d4072db
0,         11,         11,        1,  3110400, 0x4e5d29e3
0,         12,         12,        1,  3110400, 0x75300531
0,         13,         13,        1,  3110400, 0x1114285a
